<svg xmlns="http://www.w3.org/2000/svg" aria-hidden="true" style="position:absolute;width:0;height:0;overflow:hidden"><defs>
<symbol id="icon-tick" viewBox="0 0 32 32">
<path d="M15.411 1.859a1.001 1.001 0 0 1 1.179 0l3.238 2.362 4.008-.008a1 1 0 0 1 .954.693l1.231 3.814 3.247 2.35a1 1 0 0 1 .364 1.121L28.386 16l1.246 3.809a1 1 0 0 1-.364 1.121l-3.247 2.35-1.231 3.814a1 1 0 0 1-.954.693l-4.008-.008-3.238 2.362a1.001 1.001 0 0 1-1.179 0l-3.238-2.362-4.008.008a1 1 0 0 1-.954-.693L5.98 23.28l-3.247-2.35a1 1 0 0 1-.364-1.121L3.615 16l-1.246-3.809a1 1 0 0 1 .364-1.121L5.98 8.72l1.231-3.814a1 1 0 0 1 .954-.693l4.008.008 3.238-2.362zm6.629 11.515a1 1 0 0 0-1.414-1.414l-5.96 5.96-2.626-2.626a1 1 0 0 0-1.414 1.414l3.333 3.333a1 1 0 0 0 1.414 0l6.667-6.667z"/></symbol>
<symbol id="icon-diamond" viewBox="0 0 32 32">
<path fill="#1c1b1f" d="M16 28 2.667 12.333 6.464 4h19.074l3.797 8.333L16.002 28z" style="fill:var(--color1, #1c1b1f)"/>
<path fill="#1c1b1f" d="M5.553 3.585A.998.998 0 0 1 6.463 3h19.073a1 1 0 0 1 .91.585l3.797 8.333c.161.353.103.767-.148 1.063L16.762 28.648a1 1 0 0 1-1.523 0L1.906 12.981a1 1 0 0 1-.148-1.063l3.797-8.333zM7.107 5l-3.266 7.169 12.16 14.288 12.16-14.288L24.895 5H7.108z" style="fill:var(--color1, #1c1b1f)"/>
<path fill="#fffbff" d="M10.002 11.253a1 1 0 0 1 1.412.083L16 16.495l4.586-5.159a1 1 0 1 1 1.495 1.329l-5.333 6a.997.997 0 0 1-1.494 0l-5.333-6a1 1 0 0 1 .083-1.412z" style="fill:var(--color2, #fffbff)"/></symbol>
<symbol id="icon-facebook" viewBox="0 0 32 32">
<path d="M22.179 15.924h-4.136v14.661h-6.129V15.924H9.001v-5.182h2.913V7.39c0-2.4 1.147-6.151 6.185-6.151l4.541.017v5.03h-3.296c-.536 0-1.299.267-1.299 1.412v3.045h4.669l-.536 5.181z"/></symbol>
<symbol id="icon-user" viewBox="0 0 32 32">
<path d="M7 8.667a5.667 5.667 0 1 1 11.333 0A5.667 5.667 0 0 1 7 8.666zm4.156 9h3.021c1.456 0 2.61 0 3.54.076.951.078 1.756.24 2.491.614a6.33 6.33 0 0 1 2.768 2.768c.375.735.537 1.54.614 2.491.076.93.076 2.084.076 3.54V28a1 1 0 0 1-1 1h-20a1 1 0 0 1-1-1v-.844c0-1.456 0-2.61.076-3.54.078-.951.24-1.756.614-2.491a6.33 6.33 0 0 1 2.768-2.768c.735-.374 1.54-.537 2.491-.614.93-.076 2.084-.076 3.54-.076zM20.882 4.151a1 1 0 0 1 1.373-.34 5.666 5.666 0 0 1 0 9.713 1 1 0 0 1-1.033-1.713 3.665 3.665 0 0 0 0-6.286 1 1 0 0 1-.34-1.373zm4.648 14.643a1 1 0 0 1 1.345-.437 6.33 6.33 0 0 1 2.768 2.768c.374.735.537 1.54.614 2.491.076.93.076 2.084.076 3.54V28a1 1 0 0 1-2 0v-.8c0-1.51-.001-2.582-.069-3.421-.068-.827-.196-1.34-.403-1.746zm0 0a1 1 0 0 0 .437 1.345l-.437-1.345zm.437 1.345a4.332 4.332 0 0 1 1.894 1.894z"/><path d="m27.092 20.964-1.562-2.17.437 1.345c.42.214.799.493 1.125.825z"/></symbol>
<symbol id="icon-play" viewBox="0 0 32 32">
<path fill="#1c1b1f" d="M29.333 3.333H2.666v17.333h26.667V3.333z" style="fill:var(--color1, #1c1b1f)"/><path fill="#1c1b1f" d="M1.667 3.333a1 1 0 0 1 1-1h26.667a1 1 0 0 1 1 1v17.333a1 1 0 0 1-1 1H2.667a1 1 0 0 1-1-1V3.333zm2 1v15.333h24.667V4.333H3.667z" style="fill:var(--color1, #1c1b1f)"/><path fill="#fffbff" d="m14.667 9.333 4 2.667-4 2.667V9.334z" style="fill:var(--color2, #fffbff)"/><path fill="#fffbff" d="M14.195 8.452a1 1 0 0 1 1.027.05l4 2.667a1 1 0 0 1 0 1.664l-4 2.667a1 1 0 0 1-1.555-.832V9.335a1 1 0 0 1 .528-.882zm1.472 2.75v1.596L16.864 12l-1.197-.798z" style="fill:var(--color2, #fffbff)"/><path fill="#1c1b1f" d="M3 26.667a1 1 0 0 1 1-1h3.333a1 1 0 0 1 0 2H4a1 1 0 0 1-1-1zM10.333 26.667a1 1 0 0 1 1-1H28a1 1 0 0 1 0 2H11.333a1 1 0 0 1-1-1z" style="fill:var(--color1, #1c1b1f)"/><path fill="#1c1b1f" d="M9.333 25.667a1 1 0 1 0 0 2 1 1 0 0 0 0-2zm-3 1a3 3 0 1 1 6 0 3 3 0 0 1-6 0z" style="fill:var(--color1, #1c1b1f)"/></symbol>
<symbol id="icon-twitter" viewBox="0 0 32 32"><path d="m28.654 9.686.019.811c0 8.277-6.331 17.813-17.91 17.813a17.886 17.886 0 0 1-9.649-2.813c.492.057.994.089 1.502.089a12.67 12.67 0 0 0 7.817-2.68 6.303 6.303 0 0 1-5.881-4.348c.387.073.777.108 1.186.108.575 0 1.131-.073 1.659-.216-2.88-.579-5.05-3.105-5.05-6.138v-.079c.85.47 1.819.75 2.851.785a6.25 6.25 0 0 1-1.95-8.357 17.899 17.899 0 0 0 12.976 6.542 6.17 6.17 0 0 1-.163-1.427c0-3.455 2.819-6.259 6.296-6.259 1.809 0 3.445.76 4.596 1.977a12.796 12.796 0 0 0 3.998-1.519 6.287 6.287 0 0 1-2.768 3.465 12.685 12.685 0 0 0 3.615-.985 12.7 12.7 0 0 1-3.145 3.233z"/></symbol>
<symbol id="icon-logo" viewBox="0 0 32 32"><path fill="#5b51de" d="M32 16c0 8.837-7.163 16-16 16S0 24.837 0 16 7.163 0 16 0s16 7.163 16 16z" style="fill:var(--color3, #5b51de)"/><path fill="#fff" d="M16.354 15.2c4.755-3.586 4.965-5.76 0-9.6-5.06 3.922-4.408 6.001 0 9.6zM15.2 16.446c-3.586-4.755-5.76-4.965-9.6 0 3.922 5.06 6.001 4.408 9.6 0zm12 0c-3.586-4.755-5.76-4.965-9.6 0 3.922 5.06 6.001 4.408 9.6 0zM16.354 27.2c4.755-3.586 4.965-5.76 0-9.6-5.06 3.922-4.408 6.001 0 9.6z" style="fill:var(--color4, #fff)"/></symbol>
<symbol id="icon-instagram" viewBox="0 0 32 32">
<path d="M10.287.853C11.912.78 12.432.762 16.57.762s4.658.018 6.283.091c2.476.112 4.651.716 6.397 2.453s2.353 3.9 2.466 6.363c.074 1.617.091 2.133.091 6.249s-.018 4.632-.091 6.249c-.113 2.463-.72 4.626-2.466 6.363s-3.921 2.34-6.397 2.453c-1.625.073-2.145.091-6.283.091s-4.658-.018-6.283-.091c-2.476-.112-4.651-.716-6.397-2.453s-2.353-3.9-2.466-6.363c-.074-1.616-.091-2.133-.091-6.249s.018-4.632.091-6.249c.113-2.463.72-4.626 2.466-6.363S7.811.966 10.287.853zm12.44 2.728c-1.606-.073-2.089-.088-6.158-.088s-4.551.015-6.157.088c-1.735.078-3.344.424-4.582 1.656S4.244 8.068 4.165 9.794c-.074 1.598-.089 2.078-.089 6.124s.015 4.526.089 6.124c.079 1.725.427 3.325 1.665 4.557s2.847 1.577 4.582 1.656c1.606.073 2.089.088 6.157.088s4.551-.015 6.158-.088c1.735-.078 3.343-.424 4.582-1.656s1.586-2.831 1.665-4.557c.074-1.598.089-2.077.089-6.124s-.015-4.526-.089-6.124c-.079-1.725-.427-3.325-1.665-4.557s-2.847-1.577-4.581-1.656zM8.743 15.916c0-4.298 3.503-7.782 7.825-7.782s7.825 3.484 7.825 7.782-3.504 7.782-7.825 7.782-7.825-3.484-7.825-7.782zm2.744 0c0 2.79 2.274 5.052 5.079 5.052s5.079-2.262 5.079-5.052c0-2.79-2.274-5.052-5.079-5.052s-5.079 2.262-5.079 5.052zm15.044-8.088c0 1.004-.819 1.819-1.829 1.819s-1.829-.814-1.829-1.819.819-1.819 1.829-1.819 1.829.814 1.829 1.819z"/></symbol>
</defs></svg>